<svg id="visual" viewBox="0 0 900 200" width="900" height="200" xmlns="http://www.w3.org/2000/svg" xmlns:xlink="http://www.w3.org/1999/xlink" version="1.1"><rect x="0" y="0" width="900" height="200" fill="#ffffff"></rect><path d="M0 145L25 141.8C50 138.7 100 132.3 150 127.2C200 122 250 118 300 121.8C350 125.7 400 137.3 450 136.3C500 135.3 550 121.7 600 123.3C650 125 700 142 750 147.5C800 153 850 147 875 144L900 141L900 0L875 0C850 0 800 0 750 0C700 0 650 0 600 0C550 0 500 0 450 0C400 0 350 0 300 0C250 0 200 0 150 0C100 0 50 0 25 0L0 0Z" fill="#4facf7"></path><path d="M0 96L25 90.7C50 85.3 100 74.7 150 71.5C200 68.3 250 72.7 300 81.3C350 90 400 103 450 106.7C500 110.3 550 104.7 600 96.3C650 88 700 77 750 78.2C800 79.3 850 92.7 875 99.3L900 106L900 0L875 0C850 0 800 0 750 0C700 0 650 0 600 0C550 0 500 0 450 0C400 0 350 0 300 0C250 0 200 0 150 0C100 0 50 0 25 0L0 0Z" fill="#008cff"></path><path d="M0 58L25 56.2C50 54.3 100 50.7 150 47.2C200 43.7 250 40.3 300 37.3C350 34.3 400 31.7 450 32.7C500 33.7 550 38.3 600 41.7C650 45 700 47 750 48.7C800 50.3 850 51.7 875 52.3L900 53L900 0L875 0C850 0 800 0 750 0C700 0 650 0 600 0C550 0 500 0 450 0C400 0 350 0 300 0C250 0 200 0 150 0C100 0 50 0 25 0L0 0Z" fill="#0066ff"></path></svg>